<svg xmlns="http://www.w3.org/2000/svg" xmlns:xlink="http://www.w3.org/1999/xlink" width="93.426" height="76.276" viewBox="0 0 93.426 76.276"><defs><clipPath id="a"><rect width="79.426" height="58.276" fill="none"/></clipPath></defs><g transform="translate(-19.345 -0.15)"><rect width="93.426" height="76.276" transform="translate(19.345 0.15)" fill="#96a199"/><g transform="translate(26.346 9.15)"><g transform="translate(0 0)" clip-path="url(#a)"><path d="M78.46,26.862,41.031.419a2.284,2.284,0,0,0-2.636,0L.966,26.862A2.284,2.284,0,0,0,3.6,30.593l8.591-6.069V45.171a2.284,2.284,0,0,0,4.568,0V21.3L39.713,5.081,62.665,21.3V45.171a2.284,2.284,0,0,0,4.568,0V24.524l8.591,6.069a2.284,2.284,0,0,0,2.636-3.731" transform="translate(0 0)" fill="#fff"/><path d="M77.1,60.313H68.718a.736.736,0,0,1-.736-.736V54.154a.736.736,0,0,1,.736-.736H77.1a.736.736,0,0,1,.736.736v5.424a.736.736,0,0,1-.736.736" transform="translate(-40.581 -31.887)" fill="#fff"/><path d="M113.752,60.313h-8.378a.736.736,0,0,1-.736-.736V54.154a.736.736,0,0,1,.736-.736h8.378a.736.736,0,0,1,.736.736v5.424a.736.736,0,0,1-.736.736" transform="translate(-62.463 -31.887)" fill="#fff"/><path d="M77.1,84.751H68.718a.736.736,0,0,1-.736-.736V78.592a.736.736,0,0,1,.736-.736H77.1a.736.736,0,0,1,.736.736v5.424a.736.736,0,0,1-.736.736" transform="translate(-40.581 -46.475)" fill="#fff"/><path d="M113.752,84.751h-8.378a.736.736,0,0,1-.736-.736V78.592a.736.736,0,0,1,.736-.736h8.378a.736.736,0,0,1,.736.736v5.424a.736.736,0,0,1-.736.736" transform="translate(-62.463 -46.475)" fill="#fff"/><path d="M33.073,131.594v-3.4h-2.78v3.4H28.122v-8.5h2.171v3.193h2.78v-3.193h2.171v8.5Z" transform="translate(-16.787 -73.479)" fill="#fff"/><rect width="1.988" height="1.953" transform="translate(20.048 53.117)" fill="#fff"/><path d="M58.578,131.594v-8.5H61.3a6.523,6.523,0,0,1,1.357.1,2.144,2.144,0,0,1,1.769,2.114,1.914,1.914,0,0,1-.988,1.724,1.931,1.931,0,0,1,1.4,1.975,2.4,2.4,0,0,1-.988,2.011,3.459,3.459,0,0,1-2.447.574Zm2.941-5.273c.54,0,.827-.229.827-.678S62.07,125,61.53,125h-.873v1.321Zm.253,3.366c.609,0,.988-.264.988-.816,0-.494-.333-.735-.977-.735H60.658v1.551Z" transform="translate(-34.968 -73.479)" fill="#fff"/><path d="M81.327,123.093H83.5v5.2a3.82,3.82,0,0,1-.425,2.01,3.121,3.121,0,0,1-2.8,1.447,3.567,3.567,0,0,1-1.815-.425,3,3,0,0,1-1.483-3.022v-5.216h2.171v5.181c0,1.057.334,1.574,1.1,1.574.736,0,1.081-.368,1.081-1.563Z" transform="translate(-45.948 -73.479)" fill="#fff"/><rect width="2.171" height="8.501" transform="translate(39.071 49.614)" fill="#fff"/><path d="M106.289,131.594v-8.5h2.171v6.594h2.516v1.907Z" transform="translate(-63.448 -73.479)" fill="#fff"/><path d="M119.75,131.594v-8.5h2.9a5.171,5.171,0,0,1,2.493.517,4.1,4.1,0,0,1,1.964,3.734c0,2.8-1.654,4.251-4.308,4.251Zm3.148-1.907c1.253,0,2.034-.782,2.034-2.333,0-1.516-.77-2.355-2.023-2.355h-.988v4.688Z" transform="translate(-71.483 -73.479)" fill="#fff"/><path d="M141.2,131.594v-8.5h4.721V125h-2.642v1.321h2.561v1.907h-2.561v1.459h2.642v1.907Z" transform="translate(-84.287 -73.479)" fill="#fff"/><path d="M160.322,131.594l-1.965-2.746h-.023v2.746h-2.079v-8.5h2.78a5.242,5.242,0,0,1,2.01.31,2.811,2.811,0,0,1,1.562,2.619A2.578,2.578,0,0,1,160.5,128.7l2.309,2.9Zm-1.183-4.228c.863,0,1.39-.4,1.39-1.218,0-.735-.551-1.149-1.367-1.149h-.827v2.367Z" transform="translate(-93.275 -73.479)" fill="#fff"/></g></g></g></svg>