<svg xmlns="http://www.w3.org/2000/svg" xmlns:xlink="http://www.w3.org/1999/xlink" width="79.43" height="58.28" viewBox="0 0 79.43 58.28"><defs><clipPath id="a"><rect width="79.43" height="58.28" style="fill:none"/></clipPath></defs><g style="clip-path:url(#a)"><path d="M78.46,26.86,41,.42a2.28,2.28,0,0,0-2.64,0L1,26.86A2.28,2.28,0,0,0,3.6,30.59l8.59-6.07V45.17a2.29,2.29,0,0,0,4.57,0V21.3l23-16.22,23,16.22V45.17a2.28,2.28,0,1,0,4.56,0V24.52l8.59,6.07a2.28,2.28,0,1,0,2.64-3.73" style="fill:#fff"/><path d="M36.52,28.43H28.14a.74.74,0,0,1-.74-.74h0V22.27a.74.74,0,0,1,.74-.74h8.38a.73.73,0,0,1,.73.74h0v5.42a.73.73,0,0,1-.73.74h0" style="fill:#fff"/><path d="M51.29,28.43H42.91a.74.74,0,0,1-.74-.74h0V22.27a.74.74,0,0,1,.74-.74h8.38a.73.73,0,0,1,.73.74h0v5.42a.73.73,0,0,1-.73.74h0" style="fill:#fff"/><path d="M36.52,38.28H28.14a.74.74,0,0,1-.74-.74h0V32.12a.74.74,0,0,1,.74-.74h8.38a.73.73,0,0,1,.73.74h0v5.42a.73.73,0,0,1-.73.74h0" style="fill:#fff"/><path d="M51.29,38.28H42.91a.74.74,0,0,1-.74-.74h0V32.12a.74.74,0,0,1,.74-.74h8.38a.73.73,0,0,1,.73.74h0v5.42a.73.73,0,0,1-.73.74h0" style="fill:#fff"/><path d="M16.29,58.11V54.72H13.51v3.39H11.33v-8.5h2.18v3.2h2.78v-3.2h2.17v8.5Z" style="fill:#fff"/><rect x="20.05" y="53.12" width="1.99" height="1.95" style="fill:#fff"/><path d="M23.61,58.11v-8.5h2.72a6.87,6.87,0,0,1,1.36.1,2.16,2.16,0,0,1,1.77,2.12,1.9,1.9,0,0,1-1,1.72,1.93,1.93,0,0,1,1.4,2,2.42,2.42,0,0,1-1,2,3.41,3.41,0,0,1-2.44.57Zm2.94-5.27c.54,0,.83-.23.83-.68s-.28-.64-.82-.64h-.87v1.32Zm.25,3.37c.61,0,1-.27,1-.82s-.33-.73-1-.73H25.69v1.55Z" style="fill:#fff"/><path d="M35.38,49.61h2.17v5.2a3.76,3.76,0,0,1-.42,2,3.12,3.12,0,0,1-2.8,1.45,3.61,3.61,0,0,1-1.82-.42,3,3,0,0,1-1.48-3V49.61H33.2v5.18c0,1.06.33,1.57,1.1,1.57s1.08-.36,1.08-1.56Z" style="fill:#fff"/><rect x="39.07" y="49.61" width="2.17" height="8.5" style="fill:#fff"/><path d="M42.84,58.11v-8.5H45v6.6h2.52v1.91Z" style="fill:#fff"/><path d="M48.27,58.11v-8.5h2.9a5.22,5.22,0,0,1,2.49.52,4.1,4.1,0,0,1,2,3.74c0,2.8-1.65,4.25-4.3,4.25Zm3.15-1.9c1.25,0,2-.78,2-2.33s-.77-2.36-2-2.36h-1v4.69Z" style="fill:#fff"/><path d="M56.91,58.11v-8.5h4.72v1.91H59v1.32h2.56v1.91H59v1.46h2.64v1.9Z" style="fill:#fff"/><path d="M67.05,58.11l-2-2.74h0v2.74H63v-8.5h2.78a5.49,5.49,0,0,1,2,.31,2.82,2.82,0,0,1,1.56,2.62,2.57,2.57,0,0,1-2.11,2.68l2.31,2.9Zm-1.19-4.22c.87,0,1.39-.4,1.39-1.22s-.55-1.15-1.36-1.15h-.83v2.37Z" style="fill:#fff"/></g></svg>